<?xml version="1.0" encoding="utf-8"?>
<!-- Generator: Adobe Illustrator 24.0.1, SVG Export Plug-In . SVG Version: 6.00 Build 0)  -->
<svg version="1.1" id="레이어_1" xmlns="http://www.w3.org/2000/svg" xmlns:xlink="http://www.w3.org/1999/xlink" x="0px"
	 y="0px" viewBox="0 0 302.7 96.2" style="enable-background:new 0 0 302.7 96.2;" xml:space="preserve">
<style type="text/css">
	.st0{fill:#FFFFFF;}
</style>
<g>
	<g>
		<path class="st0" d="M84.1,52c0.2-0.2,0.4-0.5,0.4-0.9c0-0.3-0.1-0.6-0.4-0.9c-0.2-0.2-0.5-0.4-0.9-0.4s-0.6,0.1-0.9,0.4
			c-1.1,1.1-2.2,1.6-3.2,1.9c0-1.4-0.2-2.8-0.3-4.1c1.4-0.9,2.8-2.2,4-4.3c0.2-0.3,0.2-0.6,0.1-0.9c-0.1-0.3-0.3-0.6-0.6-0.7
			c-0.1,0-0.3-0.1-0.5-0.1c-0.4,0-0.8,0.2-1,0.6c-0.7,1.2-1.6,2.2-2.4,2.8c-0.6-3.3-1.5-5.8-1.8-6.6c3.3-11.2-0.3-17.5-1.9-19.7
			c-0.6-0.8-1.5-1.2-2.4-1.3c-6.9-0.3-11.1,3.7-13.1,6.1c-1.4,1.6-3.1,4.3-3.6,4.9c-0.1-2-1.4-8-3.2-7.8s-1.2,6.5-2.2,7.7
			c-1.5-2.6-2.8-6.2-4.1-5.9c-1.5,0.4-0.6,4.4-1.9,7.1c-2.9-4.4-6.3-7.4-10.2-9.2c-3.8-1.7-7.2-1.7-9.4-1.4
			c-1.5,0.2-2.7,1.2-3.3,2.6c-1.6,4.1-1.4,8.8,0.6,13.5c1.1,2.8,2.6,4.8,3.2,5.6c-0.3,1-1.1,3.7-1.6,7c-2.4-1.1-3.7-3.3-3.8-3.5
			c-0.2-0.4-0.6-0.6-1.1-0.6c-0.2,0-0.4,0.1-0.6,0.2c-0.3,0.2-0.5,0.4-0.6,0.7s0,0.6,0.1,0.9c0,0.1,1,1.8,3,3.3
			c0.9,0.7,1.8,1.2,2.7,1.5c-0.1,1.4-0.1,2.8,0,4.1c-2.7-0.5-4.6-2.2-4.7-2.3C18.3,52.1,18,52,17.7,52s-0.7,0.1-0.9,0.4
			c-0.5,0.5-0.4,1.3,0.1,1.7c0.1,0.1,1.5,1.4,3.7,2.3c1,0.4,1.9,0.6,2.9,0.7c0.1,0.7,0.2,1.4,0.4,2.3c0.1,0.3,0.1,0.6,0.2,0.9
			c-0.3,0-0.7,0-1,0s-0.6,0-0.9,0c-1.9-0.1-3.4-0.7-3.4-0.7c-0.1,0-0.3-0.1-0.4-0.1c-0.5,0-1,0.3-1.1,0.8c-0.2,0.6,0.1,1.3,0.7,1.6
			c0.1,0,1.8,0.6,4.1,0.8c0.4,0,0.7,0,1.1,0c0.6,0,1.2,0,1.7-0.1c3.4,9,13.9,15.6,26.3,15.6c13.3,0,24.4-7.6,26.9-17.6
			c0.6,0.2,1.3,0.3,2.1,0.3c1.2,0,2.5-0.3,3.7-0.8c0.6-0.2,0.9-1,0.7-1.6c-0.2-0.5-0.6-0.8-1.1-0.8c-0.2,0-0.3,0-0.4,0.1
			c-1,0.4-1.9,0.6-2.8,0.6c-0.6,0-1.1-0.1-1.5-0.2c0.3-1.2,0.6-2.5,0.7-3.7C80.6,54.4,82.4,53.7,84.1,52z M82.2,42.6
			C82.2,42.6,82.1,42.6,82.2,42.6C82.1,42.5,82.2,42.5,82.2,42.6z M81.8,42.5L81.8,42.5L81.8,42.5L81.8,42.5z M18.4,44.5
			C18.4,44.5,18.5,44.5,18.4,44.5c0.1,0,0.1,0,0.1,0S18.5,44.5,18.4,44.5z M17.6,52.6L17.6,52.6L17.6,52.6L17.6,52.6z M18.1,52.8
			C18.1,52.8,18.2,52.8,18.1,52.8C18.2,52.8,18.1,52.8,18.1,52.8z M18.6,53.1c0.1,0.1,0.1,0.1,0.2,0.2
			C18.7,53.3,18.6,53.2,18.6,53.1z M18.8,53.3c0.1,0.1,0.2,0.1,0.3,0.2C19,53.5,18.9,53.4,18.8,53.3z M19.4,53.8
			c0.1,0.1,0.2,0.1,0.4,0.2C19.7,53.9,19.6,53.8,19.4,53.8z M19.8,54c0.1,0.1,0.3,0.1,0.4,0.2C20.1,54.1,19.9,54.1,19.8,54z
			 M23,55.2h0.1l0,0H23z M18.2,60.1L18.2,60.1L18.2,60.1L18.2,60.1z M27.6,26c3.1-0.9,7.7,3.4,9.4,6.9l-6.7,4.6
			C27.5,34.8,25.6,26.6,27.6,26z M46.2,56.9L46.2,56.9c-1,0.4-2.1,0.4-3,0l-0.1-0.1c-0.6-0.6-0.2,2.3-3.6,1.9h-0.1
			c-0.5-0.1-1-0.6-1.3-1c-0.1-0.3-0.5-0.3-0.7-0.2c-5.4,3.9-6.3-7.4-0.7-6c0.6,0.2,0.4-1.9,3-1.9c2,0,2.4,2.1,2.8,1.5
			c1.1-1.9,4.6-1.3,4.2,1.4c0,0.3,0,0.5,0.2,0.6C48,53.8,48.3,55.8,46.2,56.9z M67.1,57.4c-0.2-0.2-0.6-0.1-0.7,0.2
			c-0.3,0.5-0.8,0.9-1.3,1H65c-3.4,0.4-3-2.6-3.6-1.9l-0.1,0.1c-0.9,0.5-1.9,0.5-2.9,0.1c0,0,0,0-0.1,0c-2.1-1.1-1.8-3.1-0.6-3.7
			c0.2-0.1,0.2-0.4,0.2-0.6c-0.5-2.7,3-3.3,4.2-1.4c0.4,0.6,0.7-1.5,2.8-1.5c2.6,0,2.4,2,3,1.9C73.4,50,72.4,61.3,67.1,57.4z
			 M70,34.9l-6.4-4.3c0.9-3,5-5.9,7.6-5.7C73.3,25,71.7,33.1,70,34.9z M83.2,58.4L83.2,58.4L83.2,58.4L83.2,58.4z"/>
		<path class="st0" d="M131.9,33.9c-0.3-0.6-1-1.1-1.6-1.3c-0.7-0.2-1.5-0.1-2.1,0.3c-0.6,0.4-1.1,0.9-1.3,1.6
			c-0.1,0.6-0.1,1,0.1,1.5c0.1,0.2,0.5,1.2,0.6,1.7c0.4,1.4,2,2.4,3.4,1.9s2.3-1.9,1.9-3.4C132.6,35.5,132.3,34.7,131.9,33.9z"/>
		<path class="st0" d="M128.8,41.9c-1.5,0.5-2.2,1.8-1.9,3.3c0,0,0.2,1.3,0.2,1.8c0,0.7,0.1,2.1,0.1,2.8c0,1.5-0.7,9.9-0.4,12.9
			c0.1,1.4,1.2,2.8,2.8,2.8c1.4-0.1,2.9-1.2,2.8-2.8c-0.3-3.1,0-6.2,0.2-9.3c0.2-3.3,0.2-6.5-0.3-9.7
			C132,42.4,130.1,41.5,128.8,41.9z"/>
		<path class="st0" d="M155.5,42.9c-1.9-0.2-3.9-0.3-5.9-0.4c0-2-0.1-4-0.3-5.9c-0.2-1.4-2.1-2.3-3.4-1.9c-1.4,0.5-2,1.6-2,2.9
			c0,0.1,0.2,4.2,0.2,4.8c-1.8,0-3.6,0.1-5.3,0.2c-1.4,0.1-2.8,1.2-2.8,2.8c0.1,1.4,1.2,2.9,2.8,2.8c1.8-0.1,3.7-0.2,5.5-0.2
			c0,0.8,0.4,11,0.5,15.3c0.1,1.4,1.2,2.8,2.8,2.8c1.5-0.1,2.8-1.2,2.8-2.8c-0.2-4.4-0.5-14.6-0.5-15.2c1.9,0.1,3.8,0.2,5.7,0.4
			c1.4,0.1,2.8-1.4,2.8-2.8C158.1,44.1,157,43.1,155.5,42.9z"/>
		<path class="st0" d="M262.1,42.6c-1.7,0.2-3.3,0.4-5,0.5c0-2,0-3.9,0.1-5.9c0.1-1.4-1.3-2.8-2.8-2.8c-1.6,0.1-2.7,1.2-2.8,2.8
			c-0.1,2-0.1,4-0.1,6.1c-1.6,0-3.2,0-4.8-0.1c-1.4-0.1-2.8,1.3-2.8,2.8c0.1,1.6,1.2,2.7,2.8,2.8c1.7,0.1,3.3,0.1,5,0.1
			c0.3,5,0.9,9.9,1.5,14.8c0.2,1.4,1.1,2.8,2.8,2.8c1.3-0.1,2.9-1.2,2.8-2.8c-0.6-5-1.2-10-1.5-15c1.6-0.1,3.2-0.3,4.8-0.5
			c0.8-0.1,1.4-0.2,1.9-0.8c0.5-0.5,0.8-1.3,0.8-1.9C264.8,44,263.6,42.4,262.1,42.6z"/>
		<path class="st0" d="M280.9,51.3c-2.1-0.7-4.3-0.9-6.2-2.3c-0.2-0.2-1.3-1-1-2.2c0.5-1,1.2-1.1,1.9-1.1c0.3,0,2.1,0,3.2,0.7
			c1.5,0.9,4.1,2.4,5.6,0c1.1-2.6-0.9-4.1-3.7-5.2c-15.3-4.7-16.8,11.8-3.9,14.9c1.3,0.3,3.6,0.5,3.9,2.4c0.1,0.7-0.3,1.4-0.6,1.7
			c-0.2,0.2-0.7,0.7-1.4,0.9c-0.8,0.2-2.7,0.4-4.1-0.1c-0.7-0.3-1.7-1.1-2.3-3.3c-0.4-1.8-2.6-2.9-4.2-1.9c-0.8,0.5-1.2,1.5-1.2,2.4
			c0.7,13.4,19.8,9.3,19.4,0.6C286.3,57,285.6,52.8,280.9,51.3z"/>
		<path class="st0" d="M119.9,56.9c-1.3-0.7-3-0.3-3.8,1c-0.1,0.2-0.2,0.3-0.3,0.5c-0.9,1-1.7,1.6-2.5,2c-0.3,0.1-0.7,0.2-1,0.3
			c0,0-0.2,0-0.3,0.1c-0.5,0.1-0.9,0-1.4,0c-1.2-0.1-2.4-0.7-3.3-1.3c0,0-1.4-1.1-2.7-3.1c-0.4-0.6-0.6-1.1-0.6-1.1
			c-1.7-3.2-1.7-6.2-1.3-8c0.9-4.9,3.4-7,3.8-7.4c4-3.5,8.3,0.4,8.9,1.1c0.1,0.2,0.2,0.4,0.3,0.6c0.7,1.3,2.6,1.8,3.8,1
			c1.3-0.8,1.7-2.4,1-3.8c-2-4-6.7-6-11-5.9c-2.8,0-5,1.3-7,3.2c-1.5,1.5-2.8,3.3-3.7,5.3c-1.9,4.2-2.3,8.9-1,13.3
			c0.7,2.1,1.6,4.1,3,5.9c1.5,1.9,3.2,3.8,5.5,4.8c2.6,1.2,5.7,1.5,8.4,0.6c2.6-0.9,4.8-2.7,6.2-5.1
			C121.6,59.4,121.2,57.6,119.9,56.9z"/>
		<path class="st0" d="M217.4,56.9c-1.3-0.7-3-0.3-3.8,1c-0.1,0.2-0.2,0.3-0.3,0.5c-0.9,1-1.7,1.6-2.5,2c-0.3,0.1-0.7,0.2-1,0.3
			c0,0-0.2,0-0.3,0.1c-0.5,0.1-0.9,0-1.4,0c-1.2-0.1-2.4-0.7-3.3-1.3c0,0-1.4-1.1-2.7-3.1c-0.4-0.6-0.6-1.1-0.6-1.1
			c-1.7-3.2-1.7-6.2-1.3-8c0.9-4.9,3.4-7,3.8-7.4c4-3.5,8.3,0.4,8.9,1.1c0.1,0.2,0.2,0.4,0.3,0.6c0.7,1.3,2.6,1.8,3.8,1
			c1.3-0.8,1.7-2.4,1-3.8c-2-4-6.7-6-11-5.9c-2.8,0-5,1.3-7,3.2c-1.5,1.5-2.8,3.3-3.7,5.3c-1.9,4.2-2.3,8.9-1,13.3
			c0.7,2.1,1.6,4.1,3,5.9c1.5,1.9,3.2,3.8,5.5,4.8c2.6,1.2,5.7,1.5,8.4,0.6c2.6-0.9,4.8-2.7,6.2-5.1
			C219.1,59.4,218.7,57.6,217.4,56.9z"/>
		<path class="st0" d="M178.9,42.4c-1.3-0.2-2.7,0.6-3,2c-0.2,0.9-0.4,1.8-0.6,2.7l-0.8,2.8c-1.4,4-3.3,5-4.4,5.3
			c-0.2,0-0.6,0-0.9,0c-2.9-0.1-3.5-5.8-3.6-7.3c0-1.1,0-2.3,0-3.4c0.1-1.4-1.3-2.8-2.8-2.8c-1.6,0.1-2.7,1.2-2.8,2.8
			c-0.3,5.1,0.1,12.2,5,15.2c2,1.2,4.7,1.3,6.9,0.7c1.6-0.5,3.1-1.4,4.2-2.6c-0.1,1.3-0.3,4.9-1,7.1c-1.4,4.8-2.6,5.1-4.3,5.2
			c-4.6,0.1-5.6-3.9-5.7-4.1c-0.4-1.4-1.9-2.4-3.4-1.9c-1.4,0.4-2.4,1.9-1.9,3.4c1.2,3.8,4,7,8,7.9c3.1,0.7,6.4,0.2,8.8-2
			c2.4-2.1,3.5-5.4,4.1-8.4c0.7-3.5,0.9-7,0.9-10.6c0-3.1-0.2-6.1-0.5-9.2C181.2,43.7,180.4,42.6,178.9,42.4z"/>
		<path class="st0" d="M243.8,60.2c-1.3-0.6-1.8-1.3-1.9-1.4c-0.8-1.1-0.9-2.5-0.6-3.1c0.8-1.6,2.4-3.7,1.6-5
			c-0.8-1.2-2.3-1.7-3.6-1.1c-1-2.1-2.8-3.7-5.2-4.4c-2.2-0.6-4.6-0.8-6.8,0c-2,0.7-3.6,2-4.9,3.8c-2,2.9-2.5,7.1-1.4,10.4
			c0.7,1.9,1.8,3.6,3.5,4.7c0.7,0.5,3.3,1.4,5.7,1.4c2.9,0,5.4-1.6,7.1-3.7c0.9,1.3,2.2,2.4,3.6,3.1c1.3,0.6,3,0.4,3.8-1
			C245.5,62.8,245.2,60.8,243.8,60.2z M234.8,56.5c-0.8,2.9-3.5,4.5-5.9,3.8s-3.6-3.3-2.8-6.2s3.3-4.4,5.7-3.9
			C234.6,50.8,235.5,53.6,234.8,56.5z M242,58.8C241.9,58.7,241.9,58.7,242,58.8L242,58.8z"/>
	</g>
</g>
</svg>
